HIERARCHY
ROOT root
{
	OFFSET 0.000000 0.000000 0.000000
	CHANNELS 6 Xposition Yposition Zposition Zrotation Yrotation Xrotation
	JOINT lhip
	{
		OFFSET 0.058581 -0.082280 -0.017664
		CHANNELS 3 Zrotation Yrotation Xrotation
		JOINT lknee
		{
			OFFSET 0.043451 -0.386469 0.008037
			CHANNELS 3 Zrotation Yrotation Xrotation
			JOINT lankle
			{
				OFFSET -0.014790 -0.426874 -0.037428
				CHANNELS 3 Zrotation Yrotation Xrotation
				JOINT ltoe
				{
					OFFSET 0.041054 -0.060286 0.122042
					CHANNELS 3 Zrotation Yrotation Xrotation
					End Site
					{
						OFFSET 0.000000 0.000000 0.000000
					}
				}
			}
		}
	}
	JOINT rhip
	{
		OFFSET -0.060310 -0.090513 -0.013543
		CHANNELS 3 Zrotation Yrotation Xrotation
		JOINT rknee
		{
			OFFSET -0.043257 -0.383688 -0.004843
			CHANNELS 3 Zrotation Yrotation Xrotation
			JOINT rankle
			{
				OFFSET 0.019056 -0.420046 -0.034562
				CHANNELS 3 Zrotation Yrotation Xrotation
				JOINT rtoe
				{
					OFFSET -0.034840 -0.062106 0.130323
					CHANNELS 3 Zrotation Yrotation Xrotation
					End Site
					{
						OFFSET 0.000000 0.000000 0.000000
					}
				}
			}
		}
	}
	JOINT lowerback
	{
		OFFSET 0.004439 0.124404 -0.038385
		CHANNELS 3 Zrotation Yrotation Xrotation
		JOINT upperback
		{
			OFFSET 0.004488 0.137956 0.026820
			CHANNELS 3 Zrotation Yrotation Xrotation
			JOINT chest
			{
				OFFSET -0.002265 0.056032 0.002855
				CHANNELS 3 Zrotation Yrotation Xrotation
				JOINT lowerneck
				{
					OFFSET -0.013390 0.211636 -0.033468
					CHANNELS 3 Zrotation Yrotation Xrotation
					JOINT upperneck
					{
						OFFSET 0.010113 0.088937 0.050410
						CHANNELS 3 Zrotation Yrotation Xrotation
						End Site
						{
							OFFSET 0.000000 0.000000 0.000000
						}
					}
				}
				JOINT lclavicle
				{
					OFFSET 0.071702 0.114000 -0.018898
					CHANNELS 3 Zrotation Yrotation Xrotation
					JOINT lshoulder
					{
						OFFSET 0.122921 0.045205 -0.019046
						CHANNELS 3 Zrotation Yrotation Xrotation
						JOINT lelbow
						{
							OFFSET 0.255332 -0.015649 -0.022946
							CHANNELS 3 Zrotation Yrotation Xrotation
							JOINT lwrist
							{
								OFFSET 0.265709 0.012698 -0.007375
								CHANNELS 3 Zrotation Yrotation Xrotation
								End Site
								{
									OFFSET 0.000000 0.000000 0.000000
								}
							}
						}
					}
				}
				JOINT rclavicle
				{
					OFFSET -0.082954 0.112472 -0.023707
					CHANNELS 3 Zrotation Yrotation Xrotation
					JOINT rshoulder
					{
						OFFSET -0.113228 0.046853 -0.008472
						CHANNELS 3 Zrotation Yrotation Xrotation
						JOINT relbow
						{
							OFFSET -0.260127 -0.014369 -0.031269
							CHANNELS 3 Zrotation Yrotation Xrotation
							JOINT rwrist
							{
								OFFSET -0.269108 0.006794 -0.006027
								CHANNELS 3 Zrotation Yrotation Xrotation
								End Site
								{
									OFFSET 0.000000 0.000000 0.000000
								}
							}
						}
					}
				}
			}
		}
	}
}
MOTION
Frames: 5
Frame Time: 0.033333
0.156274 2.008737 0.991774 0.927845 -1.200452 85.250982 -10.405270 -6.172806 0.306826 -1.422062 -8.512493 5.614005 10.657355 9.562860 -17.932675 0.000000 -0.000000 0.000000 -5.147964 0.498568 -16.805650 -4.209479 -8.532976 61.975420 5.433432 -14.613661 1.780243 0.000000 -0.000000 0.000000 -1.278709 -0.838205 11.170362 2.180231 -1.159677 2.315983 0.233934 -1.990883 2.443638 -0.274002 2.957246 -3.939034 -2.506022 4.258573 2.833447 -22.312985 -2.195963 -1.424921 -52.139668 -21.076210 5.364219 39.604902 -42.840022 -44.553383 -1.337019 -14.630713 -40.073860 21.999807 4.275942 -5.855388 50.241027 15.023198 15.616018 -53.573162 48.929163 -54.963683 13.802579 13.446190 -33.927585 
0.158249 1.982581 0.991813 2.615865 -0.505501 84.727456 -10.046997 -5.189428 2.725990 -1.278549 -10.099262 5.611366 9.972330 8.896244 -19.545691 0.000000 -0.000000 0.000000 -4.512871 0.902567 -19.551815 -4.672496 -9.875285 58.210894 5.740504 -13.973359 -1.760084 0.000000 -0.000000 0.000000 -0.917048 -1.834140 12.129184 2.527819 -1.354328 2.060817 0.599377 -2.541382 2.256684 -0.073746 4.175277 -3.881320 -2.970087 3.963366 2.601705 -21.680977 -3.281316 -1.666375 -52.600613 -22.430430 6.186698 41.763862 -44.739001 -44.130798 -1.891726 -15.235710 -38.877853 21.748565 4.240231 -6.054067 50.227748 15.144945 15.089067 -56.603445 49.283747 -56.838456 13.157005 13.740826 -34.860390 
0.159878 1.956791 0.991185 3.942464 -0.012735 84.493401 -9.682538 -4.276113 4.793498 -1.179335 -11.608605 5.582673 9.464140 8.335252 -20.965768 0.000000 -0.000000 0.000000 -4.016645 1.321012 -21.986087 -4.846323 -11.109560 52.522539 5.883332 -14.250304 -3.934586 0.000000 -0.000000 0.000000 -0.759000 -2.632707 12.876410 2.787318 -1.513468 1.795959 0.976006 -2.913201 2.151430 0.105516 5.188595 -3.981370 -3.127181 3.929207 2.376300 -20.862545 -4.478059 -1.747121 -52.436509 -23.617612 6.396055 43.386651 -46.755213 -42.730687 -2.950572 -15.477535 -35.319438 21.379394 4.523936 -6.179695 50.274500 15.288136 14.305462 -59.776931 49.168076 -58.855084 12.928397 13.671030 -34.600407 
0.161649 1.925141 0.989811 5.170860 0.289734 84.727615 -9.335048 -3.055921 6.720062 -1.040696 -13.289402 5.560439 8.949701 7.730776 -22.536431 0.000000 -0.000000 0.000000 -3.462652 1.416130 -24.457977 -4.730935 -12.184030 42.755674 6.616327 -14.342230 -4.968119 0.000000 -0.000000 0.000000 -0.682493 -3.270136 13.472546 2.947513 -1.752836 1.287275 1.350594 -3.187082 2.022298 0.364060 6.276216 -4.113224 -3.138795 3.797189 2.061103 -19.782752 -5.704318 -1.974953 -51.494441 -24.311367 6.553565 44.152806 -49.945728 -38.633672 -3.536672 -14.438424 -28.143063 21.064373 4.828442 -6.232091 50.273445 15.458479 13.096758 -62.831707 48.839260 -59.665063 12.556304 12.589590 -31.776427 
0.162649 1.906117 0.988533 5.716523 0.313471 85.154276 -9.216234 -2.401721 7.572879 -0.950124 -14.036749 5.497847 8.745266 7.389480 -23.328082 0.000000 -0.000000 0.000000 -3.074775 1.353984 -25.520072 -4.309393 -12.405731 35.540196 7.071945 -14.052280 -4.247892 0.000000 -0.000000 0.000000 -0.680178 -3.448544 13.452355 3.002699 -1.956182 1.108501 1.496780 -3.274753 1.949982 0.510673 6.856978 -4.148510 -3.125275 3.627232 1.783599 -19.127203 -6.213176 -2.117862 -50.611780 -24.508733 6.632570 43.186677 -52.183208 -34.233311 -4.566647 -14.115371 -22.888374 20.937645 4.861574 -6.202705 50.245545 15.616874 12.356405 -63.726298 48.609157 -58.514700 12.565608 11.729697 -28.412078 
